<svg id="Capa_1" enable-background="new 0 0 510 510" height="512" viewBox="0 0 510 510" width="512" xmlns="http://www.w3.org/2000/svg" xmlns:xlink="http://www.w3.org/1999/xlink"><linearGradient id="lg1"><stop offset="0" stop-color="#ffe177"/><stop offset="1" stop-color="#fe9738"/></linearGradient><linearGradient id="SVGID_1_" gradientUnits="userSpaceOnUse" x1="391.098" x2="412.441" xlink:href="#lg1" y1="96.903" y2="118.246"/><linearGradient id="SVGID_2_" gradientUnits="userSpaceOnUse" x1="406.667" x2="435.669" y1="103.333" y2="74.331"><stop offset="0" stop-color="#fe9738" stop-opacity="0"/><stop offset="1" stop-color="#fe7701"/></linearGradient><linearGradient id="SVGID_3_" gradientUnits="userSpaceOnUse" x1="217.227" x2="364.458" y1="193.773" y2="341.004"><stop offset="0" stop-color="#fe646f"/><stop offset="1" stop-color="#fb2b3a"/></linearGradient><linearGradient id="SVGID_4_" gradientUnits="userSpaceOnUse" x1="255" x2="255" y1="354.275" y2="479.073"><stop offset="0" stop-color="#f82814" stop-opacity="0"/><stop offset=".0222" stop-color="#f62815" stop-opacity=".022"/><stop offset=".4169" stop-color="#d92722" stop-opacity=".417"/><stop offset=".7566" stop-color="#c6272a" stop-opacity=".757"/><stop offset="1" stop-color="#c0272d"/></linearGradient><linearGradient id="SVGID_5_" gradientUnits="userSpaceOnUse" x1="328.161" x2="206.412" y1="445.163" y2="323.414"><stop offset="0" stop-color="#f82814" stop-opacity="0"/><stop offset="1" stop-color="#c0272d"/></linearGradient><linearGradient id="lg2"><stop offset="0" stop-color="#edf5ff"/><stop offset="1" stop-color="#c7e9ff"/></linearGradient><linearGradient id="SVGID_6_" gradientTransform="matrix(.707 .707 -.707 .707 633.604 -1130.967)" gradientUnits="userSpaceOnUse" x1="731.964" x2="788.282" xlink:href="#lg2" y1="1445.837" y2="1502.155"/><linearGradient id="lg3"><stop offset="0" stop-color="#fff" stop-opacity="0"/><stop offset=".3432" stop-color="#cde0f3" stop-opacity=".343"/><stop offset=".7872" stop-color="#92bae4" stop-opacity=".787"/><stop offset="1" stop-color="#7bacdf"/></linearGradient><linearGradient id="SVGID_7_" gradientTransform="matrix(.707 .707 -.707 .707 633.604 -1130.967)" gradientUnits="userSpaceOnUse" x1="750.824" x2="682.668" xlink:href="#lg3" y1="1479.588" y2="1411.432"/><linearGradient id="SVGID_8_" gradientTransform="matrix(.707 .707 -.707 .707 633.604 -1130.967)" gradientUnits="userSpaceOnUse" x1="749.829" x2="692.382" xlink:href="#lg3" y1="1494.765" y2="1437.318"/><linearGradient id="SVGID_9_" gradientTransform="matrix(.707 .707 -.707 .707 633.604 -1130.967)" gradientUnits="userSpaceOnUse" x1="748.8" x2="702.438" xlink:href="#lg3" y1="1510.475" y2="1464.113"/><linearGradient id="SVGID_10_" gradientTransform="matrix(.707 .707 -.707 .707 633.604 -1130.967)" gradientUnits="userSpaceOnUse" x1="652.581" x2="707.336" xlink:href="#lg2" y1="1428.368" y2="1483.124"/><linearGradient id="lg4"><stop offset="0" stop-color="#7bacdf" stop-opacity="0"/><stop offset="1" stop-color="#7bacdf"/></linearGradient><linearGradient id="SVGID_11_" gradientTransform="matrix(-.707 -.707 -.707 .707 3075.95 1311.38)" gradientUnits="userSpaceOnUse" x1="2780.196" x2="2712.04" xlink:href="#lg4" y1="1479.588" y2="1411.432"/><linearGradient id="SVGID_12_" gradientTransform="matrix(-.707 -.707 -.707 .707 3075.95 1311.38)" gradientUnits="userSpaceOnUse" x1="2779.202" x2="2721.755" xlink:href="#lg4" y1="1494.765" y2="1437.318"/><linearGradient id="SVGID_13_" gradientTransform="matrix(-.707 -.707 -.707 .707 3075.95 1311.38)" gradientUnits="userSpaceOnUse" x1="2778.172" x2="2731.81" xlink:href="#lg4" y1="1510.475" y2="1464.113"/><linearGradient id="SVGID_14_" gradientUnits="userSpaceOnUse" x1="142.181" x2="114.131" y1="428.486" y2="400.436"><stop offset="0" stop-color="#fff" stop-opacity="0"/><stop offset=".077" stop-color="#edf4fb" stop-opacity=".077"/><stop offset=".278" stop-color="#c5daf1" stop-opacity=".278"/><stop offset=".4752" stop-color="#a5c6e9" stop-opacity=".475"/><stop offset=".6648" stop-color="#8eb7e3" stop-opacity=".665"/><stop offset=".8435" stop-color="#80afe0" stop-opacity=".844"/><stop offset="1" stop-color="#7bacdf"/></linearGradient><linearGradient id="SVGID_15_" gradientUnits="userSpaceOnUse" x1="160.104" x2="179.773" xlink:href="#lg1" y1="327.23" y2="346.899"/><linearGradient id="SVGID_16_" gradientUnits="userSpaceOnUse" x1="428.918" x2="489.865" xlink:href="#lg1" y1="10.097" y2="71.045"/><g><path d="m451.12 76.37c0 4.48-1.7 8.96-5.12 12.38l-75.43 75.43-24.75-24.75 75.43-75.43c6.84-6.83 17.92-6.83 24.75 0 3.42 3.42 5.12 7.89 5.12 12.37z" fill="url(#SVGID_1_)"/><path d="m451.12 76.37c0 4.48-1.7 8.96-5.12 12.38l-75.43 75.43-24.75-24.75 75.43-75.43c6.84-6.83 17.92-6.83 24.75 0 3.42 3.42 5.12 7.89 5.12 12.37z" fill="url(#SVGID_2_)"/><g><path d="m255 478.475c-8.622 0-17.26-2.042-24.977-5.904-23.322-11.671-68.865-36.698-111.826-73.183-55.888-47.462-89.014-98.406-98.459-151.417-7.336-41.181 3.138-83.22 28.737-115.339 23.708-29.745 57.302-47.128 94.596-48.946 2.193-.107 4.415-.161 6.602-.161 34.941 0 67.925 13.465 92.878 37.916 4.507 4.417 8.663 9.103 12.448 14.022 3.786-4.919 7.942-9.606 12.449-14.023 24.952-24.45 57.937-37.914 92.879-37.914 2.187 0 4.41.054 6.602.161 37.294 1.818 70.889 19.201 94.597 48.948 25.599 32.118 36.072 74.157 28.734 115.337-9.443 53.01-42.57 103.955-98.457 151.417-42.96 36.483-88.502 61.511-111.826 73.183-7.717 3.862-16.354 5.903-24.977 5.903z" fill="url(#SVGID_3_)"/><path d="m40.49 307.001c16.927 31.918 42.901 62.828 77.707 92.387 42.961 36.484 88.504 61.512 111.826 73.183 7.717 3.862 16.355 5.904 24.977 5.904s17.26-2.041 24.977-5.904c23.324-11.672 68.866-36.7 111.826-73.183 34.806-29.559 60.78-60.469 77.707-92.387z" fill="url(#SVGID_4_)"/></g><path d="m278.875 231.126-164.751 164.751c1.348 1.172 2.698 2.344 4.073 3.512 42.961 36.484 88.505 61.512 111.826 73.183 7.717 3.862 16.354 5.903 24.977 5.903s17.26-2.041 24.977-5.903c23.324-11.672 68.866-36.7 111.826-73.183 10.334-8.776 19.885-17.672 28.656-26.677z" fill="url(#SVGID_5_)"/><g><g><path d="m88.213 501.961-10.575-69.599 92.44-92.44 9.314 61.298c2.558 16.837-3.041 33.887-15.083 45.929l-60.073 60.073c-5.479 5.479-14.859 2.398-16.023-5.261z" fill="url(#SVGID_6_)"/><path d="m77.638 432.362 10.575 69.599c1.164 7.66 10.544 10.74 16.023 5.262l54.705-54.706-13.382-88.076z" fill="url(#SVGID_7_)"/><path d="m77.638 432.362 10.575 69.599c1.164 7.66 10.544 10.74 16.023 5.262l31.835-31.835-13.382-88.076z" fill="url(#SVGID_8_)"/><path d="m77.638 432.362 10.575 69.599c1.164 7.66 10.544 10.74 16.023 5.262l8.161-8.161-13.382-88.076z" fill="url(#SVGID_9_)"/></g><g><path d="m8.039 421.787 69.599 10.575 92.44-92.44-61.298-9.314c-16.837-2.558-33.887 3.041-45.929 15.083l-60.074 60.073c-5.478 5.479-2.397 14.859 5.262 16.023z" fill="url(#SVGID_10_)"/><path d="m77.638 432.362-69.599-10.575c-7.66-1.164-10.74-10.544-5.262-16.023l54.706-54.706 88.076 13.382z" fill="url(#SVGID_11_)"/><path d="m77.638 432.362-69.599-10.575c-7.66-1.164-10.74-10.544-5.262-16.023l31.835-31.835 88.076 13.382z" fill="url(#SVGID_12_)"/><path d="m77.638 432.362-69.599-10.575c-7.66-1.164-10.74-10.544-5.262-16.023l8.161-8.161 88.076 13.382z" fill="url(#SVGID_13_)"/></g></g><path d="m178.68 396.57-92.44 92.44-8.6-56.65 92.44-92.44z" fill="url(#SVGID_14_)"/><path d="m64 446c-6.834-6.834-6.834-17.914 0-24.748l190.126-190.126c6.834-6.834 17.915-6.834 24.749 0 6.834 6.834 6.834 17.914 0 24.748l-190.126 190.126c-6.835 6.834-17.915 6.834-24.749 0z" fill="url(#SVGID_15_)"/><path d="m499.41 10.59c1.528 1.528 2.697 3.421 3.381 5.473 2.065 6.202 5.701 18.71 6.849 32.791 1.493 18.317-1.665 33.218-9.386 44.288-5.999 8.599-15.306 14.194-25.536 15.349-9.474 1.07-18.509-1.803-25.441-8.091-.408-.37-.811-.754-1.199-1.142-6.193-6.193-9.652-14.425-9.741-23.182-.016-1.582.078-3.149.279-4.691-1.543.201-3.11.295-4.692.279-8.756-.089-16.989-3.549-23.182-9.742-.388-.388-.772-.791-1.142-1.199-6.288-6.932-9.161-15.967-8.091-25.442 1.156-10.23 6.75-19.537 15.349-25.535 11.069-7.722 25.97-10.88 44.287-9.386 14.08 1.148 26.588 4.784 32.791 6.849 2.054.683 3.946 1.852 5.474 3.381z" fill="url(#SVGID_16_)"/></g></svg>